<?xml version="1.0" standalone="no"?>
<!DOCTYPE svg PUBLIC "-//W3C//DTD SVG 20010904//EN"
 "http://www.w3.org/TR/2001/REC-SVG-20010904/DTD/svg10.dtd">
<svg version="1.0" xmlns="http://www.w3.org/2000/svg"
 width="1280.000000pt" height="1036.000000pt" viewBox="0 0 1280.000000 1036.000000"
 preserveAspectRatio="xMidYMid meet">
<metadata>
Created by potrace 1.15, written by Peter Selinger 2001-2017
</metadata>
<g transform="translate(0.000000,1036.000000) scale(0.100000,-0.100000)"
fill="#C0C0C0" stroke="none">
<path d="M8717 10318 c-28 -35 -1443 -2039 -2240 -3173 -105 -148 -199 -280
-210 -292 -27 -31 -83 -30 -128 0 -19 12 -57 30 -85 39 -81 26 -204 115 -234
169 -14 26 -51 74 -82 107 -31 34 -59 71 -63 82 -3 11 -12 20 -19 20 -8 0 -30
20 -50 44 -22 27 -48 47 -65 51 -16 3 -35 13 -42 22 -20 23 -170 95 -189 90
-9 -2 -28 2 -41 9 -31 17 -281 19 -311 3 -12 -7 -43 -12 -70 -12 -28 0 -52 -5
-59 -13 -6 -8 -26 -14 -44 -14 -21 0 -45 -9 -63 -25 -17 -14 -41 -25 -55 -25
-46 0 -148 -47 -154 -70 -5 -19 -10 -18 -63 12 -8 4 -22 11 -30 15 -8 3 -26
15 -39 25 -13 10 -38 18 -56 18 -18 0 -38 7 -45 15 -7 8 -21 15 -31 15 -10 0
-21 5 -24 10 -4 6 -84 10 -208 10 -181 0 -208 -2 -257 -21 -30 -11 -70 -24
-88 -29 -19 -5 -41 -15 -51 -24 -10 -9 -29 -16 -44 -16 -18 0 -32 -9 -44 -27
-9 -16 -58 -71 -109 -123 -55 -57 -96 -108 -100 -125 -10 -43 -44 -85 -68 -85
-12 -1 -32 -7 -46 -15 -14 -8 -42 -14 -62 -15 -20 0 -40 -4 -43 -10 -3 -5 -28
-10 -55 -10 -27 0 -52 -4 -55 -10 -3 -5 -46 -10 -94 -10 -67 0 -92 -4 -101
-15 -11 -13 -58 -15 -312 -15 -279 0 -301 -1 -338 -20 -22 -11 -51 -20 -65
-20 -14 0 -40 -10 -58 -22 -62 -43 -159 -143 -178 -185 -10 -23 -23 -45 -29
-48 -5 -3 -10 -23 -10 -44 0 -20 -4 -41 -10 -47 -5 -5 -11 -54 -12 -109 l-3
-100 -50 -11 c-94 -22 -540 -175 -575 -198 -19 -12 -55 -30 -80 -40 -25 -9
-76 -36 -115 -58 -38 -23 -97 -57 -130 -77 -33 -19 -85 -58 -115 -87 -30 -28
-71 -57 -91 -63 -25 -8 -63 -41 -123 -104 -48 -50 -95 -101 -106 -112 -10 -11
-33 -31 -50 -44 -17 -13 -48 -57 -69 -100 -22 -42 -51 -87 -65 -100 -16 -15
-26 -35 -26 -52 0 -19 -6 -30 -20 -34 -23 -7 -88 -129 -102 -190 -5 -22 -14
-60 -19 -85 -6 -25 -14 -74 -18 -110 -3 -36 -12 -75 -19 -87 -17 -32 -15 -221
3 -253 8 -14 14 -53 15 -91 0 -38 8 -91 20 -125 11 -32 20 -69 20 -82 0 -12
11 -45 25 -72 14 -27 25 -60 25 -73 0 -32 30 -117 41 -117 5 0 9 -18 9 -40 0
-26 12 -65 35 -110 19 -38 35 -81 35 -95 0 -14 11 -48 25 -75 14 -27 25 -63
25 -79 0 -16 10 -42 24 -58 29 -35 146 -266 146 -290 0 -16 31 -91 51 -123 5
-8 27 -50 49 -92 22 -42 44 -79 50 -83 6 -4 29 -41 51 -83 88 -167 200 -338
227 -347 11 -3 27 -23 37 -44 9 -21 34 -63 56 -92 21 -30 46 -67 55 -84 9 -16
46 -61 83 -100 36 -38 77 -90 91 -114 14 -25 62 -84 108 -132 45 -48 82 -92
82 -98 0 -6 17 -19 39 -30 22 -12 43 -32 50 -49 7 -16 23 -34 37 -41 13 -6 29
-22 36 -36 6 -14 15 -25 19 -25 5 0 33 -22 63 -49 30 -27 64 -52 75 -56 12 -3
28 -20 36 -36 9 -16 20 -29 25 -29 6 0 27 -15 47 -33 21 -18 50 -40 65 -50 14
-9 29 -25 32 -35 4 -10 29 -29 56 -42 27 -13 60 -34 72 -48 13 -13 43 -34 68
-47 25 -13 70 -49 100 -80 42 -43 84 -72 180 -121 147 -76 192 -103 223 -132
13 -12 33 -22 46 -22 27 0 98 -35 128 -63 22 -20 23 -26 23 -214 0 -176 2
-194 18 -199 19 -7 108 -49 132 -63 35 -20 92 -41 115 -41 13 0 27 -4 30 -10
3 -5 16 -10 29 -10 25 0 82 -25 91 -41 4 -5 30 -9 60 -9 30 0 57 -4 60 -10 3
-5 16 -10 29 -10 12 0 26 -3 30 -7 22 -22 108 -42 261 -59 28 -4 56 -11 63
-17 8 -6 50 -15 95 -19 45 -5 125 -13 177 -19 52 -6 183 -13 290 -17 126 -5
203 -11 217 -19 30 -18 286 -18 316 0 14 7 88 15 202 19 230 9 429 32 472 56
12 7 40 12 62 12 22 0 43 5 46 10 3 6 35 10 69 10 42 0 67 5 75 14 6 8 26 16
44 19 18 3 50 10 72 17 22 7 54 14 72 17 18 3 38 11 44 19 6 8 19 14 28 14 26
0 150 49 231 91 19 10 52 26 72 36 l38 18 2 194 3 194 70 29 c39 16 117 46
175 65 75 26 117 47 148 73 23 21 75 55 115 75 39 21 84 46 99 57 15 10 46 25
70 34 24 8 63 34 88 58 25 24 92 75 150 114 104 68 151 112 185 169 9 16 36
41 59 56 49 30 154 137 180 183 10 17 35 41 55 53 21 13 54 51 76 85 22 33 71
95 111 136 39 41 103 122 143 180 39 58 89 128 111 155 22 28 45 66 51 85 6
19 21 51 33 70 13 19 33 55 44 80 12 25 40 68 62 95 22 28 45 66 51 85 7 19
29 64 50 98 21 35 49 98 63 140 14 41 36 86 48 99 12 13 35 56 49 96 57 154
80 209 104 257 14 28 28 71 32 98 3 26 21 77 39 114 19 37 34 80 34 95 1 16 7
39 15 53 8 14 14 35 15 48 0 13 9 35 21 51 20 27 36 75 46 139 3 18 9 35 14
38 5 3 9 15 9 27 0 13 7 32 15 45 14 20 14 21 0 16 -19 -8 -19 3 0 36 10 18
14 60 15 145 0 83 4 125 13 134 10 11 10 14 0 18 -9 3 -13 36 -13 116 -1 78
-5 120 -15 137 -8 14 -14 42 -15 62 0 20 -4 40 -10 43 -5 3 -10 19 -10 35 0
16 -4 32 -10 35 -5 3 -10 13 -10 21 0 8 -11 36 -24 63 -13 27 -26 60 -29 73
-6 22 114 91 1921 1111 1060 598 1942 1096 1960 1107 31 19 32 21 32 92 -1 44
-6 83 -15 98 -8 14 -15 36 -15 50 0 30 -21 92 -37 111 -6 8 -11 16 -10 19 4
20 -107 150 -129 150 -6 0 -19 9 -29 20 -11 12 -35 28 -54 36 -20 9 -45 20
-57 26 -17 8 -81 -26 -395 -210 -2021 -1184 -3591 -2102 -3596 -2102 -4 0 -36
28 -72 63 -37 34 -80 70 -96 80 -17 9 -44 27 -61 40 -32 22 -50 33 -158 99
-58 35 -83 48 -158 83 -18 9 -40 19 -48 24 -8 5 -37 19 -63 32 -42 20 -53 32
-82 89 -22 44 -57 88 -108 137 -41 40 -80 73 -85 73 -6 0 -32 18 -57 40 -25
22 -54 40 -63 40 -9 0 -26 7 -36 15 -11 8 -37 15 -57 15 -21 0 -41 5 -44 10
-3 6 -24 10 -45 10 -21 0 -42 5 -45 10 -3 6 -16 10 -29 10 -12 0 -31 7 -42 15
-10 8 -33 15 -50 15 -29 0 -55 10 -94 35 -8 5 -19 10 -25 12 -43 9 -90 34 -89
46 1 8 555 784 1233 1725 1050 1460 1231 1716 1231 1745 0 24 -17 60 -62 129
-59 91 -67 98 -131 129 -37 18 -77 43 -89 56 -15 17 -33 23 -62 23 -23 1 -52
7 -66 15 -15 8 -53 14 -92 15 -67 0 -67 0 -101 -42z"/>
</g>
</svg>
